<?xml version="1.0" encoding="UTF-8" standalone="no"?>
<!DOCTYPE svg PUBLIC "-//W3C//DTD SVG 1.1//EN" "http://www.w3.org/Graphics/SVG/1.1/DTD/svg11.dtd">
<svg width="100%" height="100%" viewBox="0 0 34 32" version="1.1" xmlns="http://www.w3.org/2000/svg" xmlns:xlink="http://www.w3.org/1999/xlink" xml:space="preserve" xmlns:serif="http://www.serif.com/" style="fill-rule:evenodd;clip-rule:evenodd;stroke-linejoin:round;stroke-miterlimit:2;">
    <g id="Artboard1" transform="matrix(1.05474,0,0,1,0,0)">
        <rect x="0" y="0" width="31.49" height="31.49" style="fill:none;"/>
        <g transform="matrix(0.948099,0,0,1,0.845112,0)">
            <path d="M21.205,5.007C20.776,4.563 20.062,4.563 19.618,5.007C19.189,5.436 19.189,6.15 19.618,6.578L27.665,14.625L1.111,14.625C0.492,14.626 0,15.118 0,15.737C0,16.356 0.492,16.864 1.111,16.864L27.665,16.864L19.618,24.896C19.189,25.34 19.189,26.055 19.618,26.483C20.062,26.927 20.777,26.927 21.205,26.483L31.157,16.531C31.601,16.102 31.601,15.388 31.157,14.96L21.205,5.007Z" style="fill:rgb(30,32,29);fill-rule:nonzero;stroke:rgb(30,32,29);stroke-width:0.5px;"/>
        </g>
    </g>
</svg>
