<?xml version="1.0" standalone="no"?>
<!DOCTYPE svg PUBLIC "-//W3C//DTD SVG 20010904//EN"
 "http://www.w3.org/TR/2001/REC-SVG-20010904/DTD/svg10.dtd">
<svg version="1.0" xmlns="http://www.w3.org/2000/svg"
 width="700.000000pt" height="700.000000pt" viewBox="0 0 700.000000 700.000000"
 preserveAspectRatio="xMidYMid meet">
<metadata>
Created by potrace 1.11, written by Peter Selinger 2001-2013
</metadata>
<g transform="translate(0.000000,700.000000) scale(0.100000,-0.100000)"
fill="#000000" stroke="none">
<path d="M3269 6996 c-2 -2 -40 -6 -84 -10 -88 -6 -277 -31 -315 -41 -8 -2
-31 -7 -50 -10 -304 -51 -729 -205 -1023 -371 -183 -103 -391 -241 -496 -329
-413 -345 -697 -697 -920 -1144 -32 -64 -71 -145 -85 -181 -15 -36 -33 -78
-41 -95 -40 -91 -144 -419 -160 -503 -3 -15 -7 -37 -10 -49 -12 -54 -15 -71
-26 -128 -15 -88 -18 -103 -25 -154 -3 -25 -8 -57 -10 -71 -25 -156 -25 -662
0 -810 3 -14 7 -45 10 -70 7 -53 13 -87 27 -156 5 -28 12 -63 15 -77 40 -225
193 -645 316 -872 6 -11 25 -45 41 -75 17 -30 50 -86 74 -123 23 -37 43 -70
43 -72 0 -2 28 -44 61 -92 428 -613 1009 -1067 1674 -1308 111 -40 306 -99
360 -109 11 -2 38 -9 60 -14 22 -6 56 -14 75 -17 19 -3 71 -12 115 -20 352
-63 814 -64 1165 -1 14 3 34 7 45 9 11 3 40 8 65 12 25 4 104 22 175 41 72 19
137 36 145 38 95 23 319 111 487 191 364 174 686 406 984 711 86 88 128 135
207 228 172 204 371 527 494 801 83 184 186 499 212 649 3 16 10 54 17 85 6
30 12 64 14 75 2 12 8 53 14 91 21 141 26 235 26 475 0 290 -5 360 -45 600
-22 129 -22 128 -45 225 -9 39 -19 81 -21 94 -3 14 -7 28 -10 33 -3 4 -7 16
-9 25 -2 10 -20 70 -40 133 -105 324 -263 641 -459 920 -177 253 -448 535
-696 726 -379 292 -836 516 -1297 635 -63 16 -126 31 -141 34 -15 2 -52 9 -82
15 -30 7 -68 13 -85 16 -16 2 -43 6 -60 9 -16 3 -52 7 -80 10 -27 3 -66 8 -85
11 -42 6 -516 15 -521 10z m460 -370 c42 -4 85 -8 96 -10 11 -2 47 -7 80 -11
32 -4 68 -9 80 -11 11 -2 47 -9 80 -15 436 -78 943 -304 1299 -580 181 -140
394 -350 532 -524 21 -27 42 -52 45 -55 12 -11 159 -229 201 -300 163 -273
323 -669 371 -920 3 -14 10 -45 16 -70 10 -48 29 -158 37 -225 3 -22 8 -53 11
-70 9 -53 11 -517 2 -590 -5 -38 -11 -92 -14 -120 -5 -41 -26 -164 -40 -235
-22 -108 -116 -420 -150 -495 -8 -16 -28 -64 -45 -105 -87 -209 -257 -495
-409 -690 -196 -249 -460 -496 -711 -664 -47 -31 -90 -61 -97 -66 -7 -6 -15
-10 -18 -10 -3 0 -24 -12 -48 -27 -67 -42 -303 -157 -407 -198 -174 -68 -374
-128 -540 -160 -229 -45 -377 -59 -620 -60 -244 0 -400 14 -645 60 -133 25
-344 89 -505 152 -459 181 -915 510 -1225 884 -321 387 -529 786 -645 1239
-12 47 -24 96 -26 110 -2 14 -7 36 -10 50 -3 14 -8 36 -10 50 -11 69 -14 88
-19 120 -30 212 -37 541 -14 730 4 36 10 88 13 115 13 114 29 196 72 365 164
658 531 1230 1059 1653 359 287 781 494 1235 605 136 33 143 35 302 58 203 29
453 36 667 20z"/>
<path d="M3750 5715 c-130 -28 -285 -127 -375 -238 -150 -186 -187 -437 -89
-604 76 -131 205 -202 374 -207 102 -3 189 17 290 67 69 33 102 59 175 132 92
92 133 157 170 270 24 70 28 220 9 287 -67 231 -290 349 -554 293z"/>
<path d="M2757 4352 c-9 -2 -18 -12 -18 -23 -1 -10 -2 -22 -3 -26 -1 -5 -8
-42 -15 -83 -16 -90 -17 -94 -29 -146 -5 -23 -7 -46 -3 -51 3 -5 95 -8 204 -8
109 0 201 -3 203 -7 3 -5 -9 -79 -27 -166 -17 -86 -33 -168 -35 -182 -7 -39
-23 -122 -29 -150 -3 -14 -8 -38 -11 -55 -2 -16 -13 -73 -24 -125 -17 -90 -53
-275 -64 -330 -2 -14 -9 -47 -15 -75 -6 -27 -24 -124 -42 -215 -17 -91 -33
-174 -35 -185 -2 -11 -6 -31 -9 -45 -7 -38 -16 -87 -110 -565 -47 -242 -88
-456 -91 -475 -3 -19 -8 -38 -11 -43 -2 -4 2 -7 9 -7 99 -3 1400 -2 1403 2 2
2 6 20 9 38 2 19 14 85 26 145 13 61 23 119 24 130 1 19 -5 20 -204 20 l-205
1 1 29 c1 37 11 102 29 180 8 33 17 76 20 95 8 46 34 184 91 470 25 129 48
246 50 260 3 14 7 36 9 50 3 14 7 36 10 50 3 14 11 59 20 100 43 222 119 611
141 725 14 72 27 141 30 155 2 14 9 48 14 75 5 28 11 60 14 71 2 12 7 37 10
55 3 19 18 96 34 172 24 119 26 137 13 138 -45 3 -1370 4 -1384 1z"/>
</g>
</svg>
